<svg width="43" height="40" viewBox="0 0 43 40" fill="none" xmlns="http://www.w3.org/2000/svg">
<path fill-rule="evenodd" clip-rule="evenodd" d="M37.4145 0.0356445C40.2866 0.0356445 42.6183 2.21208 42.6183 4.89276V34.9337C42.6183 37.6143 40.2865 39.7908 37.4145 39.7908H28.5575V24.8116H34.0979L35.1521 18.3963H28.5575V14.2331C28.5575 12.4781 29.4787 10.7673 32.4325 10.7673H35.4308V5.30561C35.4308 5.30561 32.7097 4.87218 30.1082 4.87218C24.6769 4.87218 21.127 7.94459 21.127 13.5068V18.3963H15.0897V24.8116H21.127V39.7908H5.22922C2.35719 39.7908 0.0253906 37.6143 0.0253906 34.9337V4.89276C0.0253906 2.21208 2.35711 0.0356445 5.22922 0.0356445L37.4145 0.0356445Z" fill="black"/>
</svg>
