<svg width="42" height="40" viewBox="0 0 42 40" fill="none" xmlns="http://www.w3.org/2000/svg">
<path fill-rule="evenodd" clip-rule="evenodd" d="M36.6386 0.0356445C39.4351 0.0356445 41.7055 2.21208 41.7055 4.89276V34.9337C41.7055 37.6143 39.435 39.7908 36.6386 39.7908H5.30028C2.50383 39.7908 0.233398 37.6143 0.233398 34.9337V4.89276C0.233398 2.21208 2.50375 0.0356445 5.30028 0.0356445L36.6386 0.0356445ZM20.9694 6.32503C17.1197 6.32503 16.637 6.34064 15.1251 6.40679C13.6163 6.47279 12.5859 6.70247 11.6842 7.03845C10.7521 7.38569 9.9616 7.85032 9.17355 8.60567C8.3855 9.3611 7.90079 10.1189 7.53856 11.0124C7.18815 11.8768 6.94855 12.8645 6.87962 14.3108C6.81069 15.7601 6.79441 16.2229 6.79441 19.9132C6.79441 23.6035 6.81069 24.0663 6.87962 25.5156C6.94855 26.9619 7.18815 27.9497 7.53856 28.814C7.90079 29.7075 8.3855 30.4653 9.17355 31.2208C9.9616 31.9762 10.7521 32.4408 11.6842 32.7881C12.5859 33.124 13.6163 33.3536 15.1251 33.4196C16.637 33.4858 17.1197 33.5014 20.9694 33.5014C24.8191 33.5014 25.3019 33.4858 26.8138 33.4196C28.3226 33.3536 29.353 33.124 30.2546 32.7881C31.1867 32.4408 31.9773 31.9762 32.7653 31.2208C33.5534 30.4653 34.0381 29.7075 34.4003 28.814C34.7507 27.9497 34.9903 26.9619 35.0592 25.5156C35.1282 24.0663 35.1445 23.6035 35.1445 19.9132C35.1445 16.2229 35.1282 15.7601 35.0592 14.3108C34.9903 12.8645 34.7507 11.8768 34.4003 11.0124C34.0381 10.1189 33.5534 9.3611 32.7653 8.60567C31.9773 7.85032 31.1867 7.38569 30.2546 7.03845C29.353 6.70247 28.3226 6.47279 26.8138 6.40679C25.3019 6.34064 24.8191 6.32503 20.9694 6.32503ZM20.9694 8.77339C24.7543 8.77339 25.2027 8.78721 26.6974 8.85259C28.0794 8.91308 28.8299 9.13445 29.3295 9.32041C29.9912 9.56694 30.4633 9.86145 30.9594 10.3369C31.4554 10.8124 31.7625 11.2651 32.0197 11.8993C32.2138 12.3781 32.4447 13.0976 32.5077 14.4224C32.576 15.8552 32.5905 16.285 32.5905 19.9132C32.5905 23.5414 32.576 23.9712 32.5077 25.404C32.4447 26.7288 32.2138 27.4483 32.0197 27.9271C31.7625 28.5614 31.4554 29.014 30.9594 29.4895C30.4633 29.9651 29.9912 30.2595 29.3295 30.506C28.8299 30.6921 28.0794 30.9134 26.6974 30.9738C25.2029 31.0392 24.7546 31.0531 20.9694 31.0531C17.1843 31.0531 16.736 31.0392 15.2415 30.9738C13.8595 30.9134 13.1089 30.6921 12.6094 30.506C11.9477 30.2595 11.4756 29.9651 10.9795 29.4895C10.4835 29.014 10.1762 28.5614 9.91915 27.9271C9.72508 27.4483 9.49415 26.7288 9.43105 25.404C9.36285 23.9712 9.34843 23.5414 9.34843 19.9132C9.34843 16.285 9.36285 15.8552 9.43105 14.4224C9.49415 13.0976 9.72508 12.3781 9.91915 11.8993C10.1762 11.2651 10.4835 10.8124 10.9795 10.3369C11.4756 9.86145 11.9477 9.56694 12.6094 9.32041C13.1089 9.13445 13.8595 8.91308 15.2415 8.85259C16.7362 8.78721 17.1845 8.77339 20.9694 8.77339ZM20.9694 12.9355C16.9493 12.9355 13.6904 16.0595 13.6904 19.9132C13.6904 23.7669 16.9493 26.8909 20.9694 26.8909C24.9896 26.8909 28.2485 23.7669 28.2485 19.9132C28.2485 16.0595 24.9896 12.9355 20.9694 12.9355ZM20.9694 24.4426C18.3599 24.4426 16.2445 22.4148 16.2445 19.9132C16.2445 17.4117 18.3599 15.3838 20.9694 15.3838C23.579 15.3838 25.6944 17.4117 25.6944 19.9132C25.6944 22.4148 23.579 24.4426 20.9694 24.4426ZM30.2372 12.6598C30.2372 13.5604 29.4755 14.2903 28.5361 14.2903C27.5967 14.2903 26.8351 13.5604 26.8351 12.6598C26.8351 11.7593 27.5967 11.0293 28.5361 11.0293C29.4755 11.0293 30.2372 11.7593 30.2372 12.6598Z" fill="black"/>
</svg>
